# xmcd
#
# Track frame offsets:
#	150
#	12748
#	25917
#	43598
#	61982
#	77583
#	93701
#	109722
#	124037
#	142692
#	156793
#	170956
#	186104
#	200773
#	213777
#	226605
#	239236
#	253702
#	267622
#	282206
#	298667
#
# Disc length: 4190 seconds
#
# Revision: 1
# Processed by: cddbd v1.5.2PL0 Copyright (c) Steve Scherf et al.
# Submitted via: audiograbber 1.83.01
#
DISCID=38105c15
DTITLE=Various Artist - Hit Country 2019 [Disc 1]
DYEAR=2019
DGENRE=Country
TTITLE0=Lee Kernaghan - Wheels
TTITLE1=Chris Young - Raised On Country
TTITLE2=Jasmine Rae - Right Now
TTITLE3=Travis Collins - It's Just Music
TTITLE4=Zac Brown Band - Someone I Used To Know
TTITLE5=Luke Bryan - Sunrise, Sunburn, Sunset
TTITLE6=Kacey Musgraves - Rainbow
TTITLE7=Luke Combs - Beautiful Crazy
TTITLE8=Adam Brand - If Heaven Has A Soundtrack
TTITLE9=Maddie and Tae - Friends Don't
TTITLE10=Dustin Lynch - Good Girl
TTITLE11=Tim Hicks - The Worst Kind (feat. Lindsay Ell)
TTITLE12=Christie Lamb - Hot Hot Kiss
TTITLE13=Jordan Davis - Take It From Me
TTITLE14=Kaylee Bell - Keith
TTITLE15=LOCASH - Feels Like A Party
TTITLE16=Jayne Denham and Troy Kemp - Hung Up On You
TTITLE17=Amber Lawrence - Outrageous
TTITLE18=David James - Cars, Girls And The Radio
TTITLE19=Judah Kelly - Found
TTITLE20=Natalie Pearson and Brook Chivell - I Wonder What You Kiss Like
EXTD=
EXTT0=
EXTT1=
EXTT2=
EXTT3=
EXTT4=
EXTT5=
EXTT6=
EXTT7=
EXTT8=
EXTT9=
EXTT10=
EXTT11=
EXTT12=
EXTT13=
EXTT14=
EXTT15=
EXTT16=
EXTT17=
EXTT18=
EXTT19=
EXTT20=
PLAYORDER=
